PathFileType	4	(X/Y/Z)	C:\Users\Basilio\Documents\Thesis Gigler\squatting_fais\c3dfiles\058\SLS_front_pre4\markers_experimental.trc
DataRate	CameraRate	NumFrames	NumMarkers	Units	OrigDataRate	OrigDataStartFrame	OrigNumFrames
200.000000	200.000000	4	61	mm	200.000000	1121	1282
Frame#	Time	FHD			LBHD			RBHD			C7			T10			CLAV			LSHO			LUUPA			LMUPA			LDUPA			LLEP			LRAD			LUL			LRFIN			RSHO			RUPA1			RMUPA			RDUPA			RLEP			RMEP			RRAD			RUL			RUFIN			LASI			RASI			USACR			LSACR			RSACR			LTHI1			LTHI2			LTHI3			LTHI4			LLFC			LMFC			LTIB1			LTIB2			LTIB3			LTIB4			LLMAL			LMMAL			LHEE			LMT1			LMT2			LMT5			RTHI			RTHI2			RTHI3			RTHI4			RLFC			RMFC			RTIB1			RTIB2			RTIB3			RTIB4			RLMAL			RMMAL			RHEE			RMT1			RMT2			RMT5			LMEP			
		X1	Y1	Z1	X2	Y2	Z2	X3	Y3	Z3	X4	Y4	Z4	X5	Y5	Z5	X6	Y6	Z6	X7	Y7	Z7	X8	Y8	Z8	X9	Y9	Z9	X10	Y10	Z10	X11	Y11	Z11	X12	Y12	Z12	X13	Y13	Z13	X14	Y14	Z14	X15	Y15	Z15	X16	Y16	Z16	X17	Y17	Z17	X18	Y18	Z18	X19	Y19	Z19	X20	Y20	Z20	X21	Y21	Z21	X22	Y22	Z22	X23	Y23	Z23	X24	Y24	Z24	X25	Y25	Z25	X26	Y26	Z26	X27	Y27	Z27	X28	Y28	Z28	X29	Y29	Z29	X30	Y30	Z30	X31	Y31	Z31	X32	Y32	Z32	X33	Y33	Z33	X34	Y34	Z34	X35	Y35	Z35	X36	Y36	Z36	X37	Y37	Z37	X38	Y38	Z38	X39	Y39	Z39	X40	Y40	Z40	X41	Y41	Z41	X42	Y42	Z42	X43	Y43	Z43	X44	Y44	Z44	X45	Y45	Z45	X46	Y46	Z46	X47	Y47	Z47	X48	Y48	Z48	X49	Y49	Z49	X50	Y50	Z50	X51	Y51	Z51	X52	Y52	Z52	X53	Y53	Z53	X54	Y54	Z54	X55	Y55	Z55	X56	Y56	Z56	X57	Y57	Z57	X58	Y58	Z58	X59	Y59	Z59	X60	Y60	Z60	X61	Y61	Z61	

1122	5.605	-340.6007690429688	1817.219848632813	-608.0221557617189	-489.4538879394532	1752.938354492188	-686.7482910156251	-324.2547302246094	1827.041015625	-749.3804321289064	-494.7555541992189	1604.594360351563	-701.0036010742189	-509.1664428710939	1297.47705078125	-690.6197509765626	-334.8421325683594	1560.751342773438	-685.8051757812501	-341.1763916015626	1611.652221679688	-839.252868652344	-190.5679016113282	1538.064697265625	-952.898376464844	-163.2959442138672	1573.342895507813	-928.1946411132815	-121.0377502441407	1534.741333007813	-946.6094360351565	-45.56471252441407	1534.731567382813	-931.9851074218752	220.4658966064454	1528.856201171875	-833.2178344726565	225.0922546386719	1556.056640625	-909.6400146484377	324.7319335937501	1548.583740234375	-832.8513793945315	-356.2387695312501	1608.88134765625	-530.6324462890626	-200.2481231689454	1518.325317382813	-424.0457458496095	-176.3214874267578	1556.275146484375	-446.9140014648439	-131.0078582763672	1525.873291015625	-424.5995483398439	-63.76800918579103	1516.361328125	-432.0656127929689	-56.25386428833009	1459.957397460938	-484.4494018554689	207.8636779785157	1543.822387695313	-510.791229248047	205.3364562988282	1553.464111328125	-430.8473205566407	300.2607727050782	1568.408569335938	-495.799774169922	-345.3207702636719	1113.981689453125	-848.1184692382815	-322.7145385742188	1079.57275390625	-610.2601928710939	-524.0223388671876	1174.840087890625	-690.3431396484376	-535.6969604492189	1146.899780273438	-720.4843750000001	-523.2810668945314	1139.720458984375	-664.5748901367189	-310.6584167480469	862.9555664062502	-939.5035400390627	-256.6864624023438	798.200134277344	-934.967224121094	-216.3609008789063	810.0745239257815	-905.771667480469	-265.2121582031251	738.8761596679689	-931.458190917969	-227.7414550781251	645.9102172851564	-925.9577636718752	-208.3970947265626	634.6992187500001	-798.549499511719	-126.2564773559571	538.7142333984376	-894.3529052734377	-158.1233673095703	488.8937072753907	-955.6517333984377	-120.0412521362305	493.5866088867189	-931.270935058594	-89.95009613037111	417.4792480468751	-911.8774414062502	-70.09225463867189	211.4064636230469	-942.073181152344	-53.59689331054689	230.4985809326172	-851.6556396484377	-113.0792846679688	151.6146697998047	-890.9025878906252	94.03634643554689	230.0312500000001	-874.5214843750002	97.80228424072268	237.0153045654297	-920.9564208984377	60.77346038818361	199.1168975830079	-974.136413574219	-422.1240539550782	863.6021728515627	-558.3424682617189	-382.1266174316407	810.6007080078127	-556.6965942382814	-348.7537841796876	812.515808105469	-556.8001098632814	-402.5371093750001	732.8006591796876	-581.7868041992189	-383.4549255371094	554.9413452148439	-611.9512329101564	-341.3127746582032	554.0474243164064	-742.2040405273439	-318.6860961914063	358.7852783203126	-707.3326416015626	-361.7968750000001	275.3891601562501	-652.3560791015626	-323.2895812988282	272.5124511718751	-680.8527832031251	-329.5516357421876	230.5337066650391	-721.1096801757814	-385.8894653320314	117.7655105590821	-693.4666137695314	-351.0540466308594	146.7343902587891	-776.2866210937502	-446.6946716308595	104.5679473876953	-761.4148559570314	-238.4913330078126	62.13363647460939	-768.5640869140627	-233.7214355468751	59.62612533569337	-715.5611572265626	-283.1610412597657	28.28894233703614	-666.2473144531251	-43.63079833984376	1477.819702148438	-898.967956542969	
1123	5.61	-340.5506591796876	1817.22802734375	-607.9125366210939	-489.4212341308595	1752.9453125	-686.7196044921876	-324.2260742187501	1827.0458984375	-749.4411621093751	-494.6859130859376	1604.619140625	-701.0073852539064	-509.122039794922	1297.456787109375	-690.5745239257814	-334.7904357910157	1560.694091796875	-685.7980346679689	-341.2168884277344	1611.58056640625	-839.2303466796877	-190.4722595214844	1538.041748046875	-952.8559570312502	-163.1175384521485	1573.285522460938	-928.1270751953127	-121.0125427246094	1534.767211914063	-946.5579833984377	-45.57966232299805	1534.698974609375	-931.9642333984377	220.6222229003907	1529.39111328125	-832.9725341796877	225.2015838623047	1556.134643554688	-909.5570068359377	324.7585144042969	1548.632934570313	-832.7967529296877	-356.2013549804688	1608.84228515625	-530.6044921875001	-200.2506256103516	1518.35205078125	-424.0451965332032	-176.372299194336	1556.319091796875	-446.8433532714845	-130.9851837158203	1525.923828125	-424.5910949707032	-63.70843505859376	1516.39306640625	-432.0374145507814	-56.24937057495119	1459.980102539063	-484.3651733398439	208.2355194091797	1543.9931640625	-510.7132873535157	205.3356933593751	1553.4794921875	-430.8254699707032	300.2749023437501	1568.446533203125	-495.8216857910157	-345.2183227539063	1113.982299804688	-848.0756835937502	-322.6552734375001	1079.619995117188	-610.2301635742189	-523.8709106445314	1174.807006835938	-690.3696899414064	-535.6315917968751	1146.864624023438	-720.4326782226564	-523.2327270507814	1139.699096679688	-664.5741577148439	-310.6963806152344	862.9588012695315	-939.4232177734377	-256.5828552246094	798.171569824219	-934.8922119140627	-216.2855224609376	810.0056152343752	-905.724548339844	-265.2115478515626	738.8588867187501	-931.4121093750002	-227.6322021484376	645.8872070312501	-925.8059082031252	-208.3627319335938	634.7041015625001	-798.525573730469	-126.2091293334961	538.7377319335939	-894.251159667969	-158.0323486328125	488.9474487304689	-955.5459594726565	-120.0237808227539	493.5618286132814	-931.2322998046877	-89.86974334716798	417.4841308593751	-911.7612915039065	-69.9083938598633	211.7317504882813	-942.067565917969	-53.35214614868165	230.6017150878907	-851.3814086914065	-112.9079360961914	151.6342163085938	-890.6172485351565	94.17501068115236	230.0867462158204	-874.363220214844	97.98945617675784	237.0374145507813	-920.843200683594	60.86757659912111	199.1177062988282	-974.0269775390627	-422.1531677246095	863.6202392578127	-558.3787841796876	-382.1589355468751	810.6036376953127	-556.7408447265626	-348.8238220214844	812.3533935546877	-556.8436279296876	-402.5227966308595	732.8313598632814	-581.7947998046876	-383.5863952636719	554.9598388671876	-611.9163818359376	-341.2904357910157	554.0665893554689	-742.1646118164064	-318.7000427246094	358.7913513183594	-707.2647705078126	-361.8039245605469	275.3533020019532	-652.3488159179689	-323.2934570312501	272.4958190917969	-680.7857055664064	-329.5270690917969	230.4991912841797	-721.0605468750001	-385.9904785156251	117.7600784301758	-693.4603271484376	-351.0507507324219	146.7437591552735	-776.2242431640627	-446.7191162109376	104.5538177490235	-761.3663330078126	-238.4027252197266	62.02502059936525	-768.5332031250002	-233.7782287597657	59.5877151489258	-715.5765380859376	-283.1361694335938	28.33921051025391	-666.2399902343751	-43.52477264404298	1477.771606445313	-898.9710693359377	
1124	5.615	-340.4952392578126	1817.215209960938	-607.9207153320314	-489.3969116210939	1752.949584960938	-686.7019653320314	-324.2543029785157	1826.969970703125	-749.3549194335939	-494.5571594238282	1604.64013671875	-701.0576782226564	-509.0396118164064	1297.427856445313	-690.5646972656251	-334.7406005859376	1560.705932617188	-685.7745361328126	-341.1441650390626	1611.525024414063	-839.218200683594	-190.3686676025391	1538.061767578125	-952.829040527344	-163.1608276367188	1573.279296875	-928.0546875000002	-120.8971710205078	1534.766479492188	-946.482849121094	-45.41350936889649	1534.714721679688	-931.9024047851565	220.4083099365235	1528.958251953125	-832.990417480469	225.2649078369141	1556.229858398438	-909.5164184570315	324.9238586425782	1548.816772460938	-832.578796386719	-356.4435424804688	1608.816772460938	-530.7696533203126	-200.2317657470704	1518.354125976563	-423.9688110351564	-176.332748413086	1556.290283203125	-446.9215393066407	-130.9604797363282	1525.966796875	-424.589813232422	-63.71759414672853	1516.363037109375	-431.8985900878907	-56.27890396118165	1460.0458984375	-484.3172912597657	208.0219116210938	1543.904541015625	-510.672088623047	205.8020019531251	1553.887939453125	-430.4046325683595	300.2168884277344	1568.5146484375	-495.7154846191407	-345.1836853027344	1113.96630859375	-848.019226074219	-322.6124572753907	1079.640380859375	-610.0919189453126	-523.8093261718751	1174.873657226563	-690.3416748046876	-535.4674682617189	1146.890502929688	-720.4622802734376	-523.1674804687501	1139.684692382813	-664.5795288085939	-310.6515197753907	862.906921386719	-939.3782348632815	-256.3746337890626	798.1694335937502	-934.7916259765627	-216.0944061279297	810.1160888671877	-905.6776123046877	-265.1111145019532	738.7922363281251	-931.3894653320315	-227.6134796142579	645.9408569335939	-925.8380126953127	-208.3054656982422	634.7054443359376	-798.4268798828127	-126.1565017700196	538.6932983398439	-894.112976074219	-158.0269622802735	488.9399414062501	-955.3688964843752	-119.9757461547852	493.5484924316407	-931.124694824219	-89.84078216552736	417.460662841797	-911.5843505859377	-69.62829589843751	211.7306060791016	-941.882995605469	-53.20198440551759	230.6247863769532	-851.1492919921877	-112.6136856079102	151.7214660644532	-890.3240356445315	95.31829071044923	230.8122100830079	-874.4805297851565	98.55365753173831	237.5128021240235	-920.830017089844	61.06285476684572	199.1070251464844	-973.8989257812502	-422.215545654297	863.5337524414065	-558.4218750000001	-382.1630859375001	810.6379394531252	-556.7405395507814	-348.8678283691407	812.3469848632815	-556.7592163085939	-402.5513000488282	732.8414306640626	-581.8181152343751	-383.6218261718751	554.9710083007814	-611.9191284179689	-341.2661132812501	553.9915161132814	-742.1011352539064	-318.6318664550782	358.7837829589844	-707.1537475585939	-361.8628845214844	275.3562927246094	-652.3511352539064	-323.2994079589844	272.5026245117188	-680.6876220703126	-329.4428100585938	230.5076446533204	-721.0417480468751	-385.9759521484376	117.6859664916992	-693.4458007812501	-351.0427246093751	146.7455139160157	-776.2192993164065	-446.7628479003907	104.6006698608399	-761.3392944335939	-238.4188385009766	62.10512924194337	-768.4624023437502	-233.7982940673829	59.56497955322267	-715.5430908203126	-283.1443786621094	28.34038734436036	-666.2469482421876	-43.41068649291993	1477.707763671875	-898.8458251953127	
1125	5.62	-340.4983520507813	1817.16015625	-607.9541015625001	-489.3751831054689	1752.960205078125	-686.6834106445314	-324.0577392578126	1827.025024414063	-749.3354492187501	-494.5398559570314	1604.688598632813	-701.0303344726564	-508.9283447265626	1297.435546875	-690.5479736328126	-334.7151184082032	1560.658935546875	-685.7611694335939	-341.1007690429688	1611.517333984375	-839.167175292969	-190.1693878173828	1538.024169921875	-952.788757324219	-162.9874114990235	1573.326538085938	-928.0400390625002	-120.7881927490235	1534.808959960938	-946.4395141601565	-45.28285598754884	1534.763305664063	-931.8653564453127	220.5816802978516	1529.266235351563	-832.9260253906252	225.3326110839844	1556.285888671875	-909.433288574219	325.1524658203126	1548.91064453125	-832.488220214844	-356.2015686035157	1608.8115234375	-530.6480102539064	-200.2422790527344	1518.362915039063	-423.9679260253907	-176.318588256836	1556.35595703125	-446.8836364746095	-130.91064453125	1526.123046875	-424.5774536132814	-63.70522689819337	1516.377807617188	-431.8560791015626	-56.28882217407228	1460.031372070313	-484.312225341797	208.1703033447266	1543.967651367188	-510.6162719726564	205.7261810302735	1553.892333984375	-430.3913879394532	300.2656860351563	1568.539306640625	-495.6694641113282	-344.9423522949219	1113.967895507813	-847.903503417969	-322.5553588867188	1079.61474609375	-610.0559082031251	-523.7150878906251	1174.85009765625	-690.3245239257814	-535.3640747070314	1146.9208984375	-720.4185180664064	-523.0838012695314	1139.685668945313	-664.5518188476564	-310.5050659179688	862.966491699219	-939.3294067382815	-256.4069519042969	798.656677246094	-934.6176757812502	-215.8961944580079	810.1424560546877	-905.6231079101565	-265.0525817871094	738.8282470703126	-931.2969970703127	-227.4908752441407	645.9428100585939	-925.6868286132815	-208.280746459961	634.7607421875001	-798.3144531250002	-125.9593658447266	538.7760620117189	-894.074157714844	-157.9058227539063	488.9392395019532	-955.2938232421877	-119.9372024536133	493.5906372070314	-930.934997558594	-89.75179290771486	417.4675292968751	-911.4603271484377	-69.45045471191408	211.8082122802735	-941.606384277344	-52.99155044555665	230.6878051757813	-850.9631958007815	-112.5484237670899	151.7837677001953	-890.0571899414065	95.4719696044922	230.838119506836	-874.3468017578127	98.659294128418	237.5057983398438	-920.7122802734377	61.26380920410158	199.0663299560547	-973.7490844726565	-422.2271423339845	863.5542602539065	-558.4509887695314	-382.1987304687501	810.6280517578127	-556.7768554687501	-348.8666381835938	812.343933105469	-556.7506103515626	-402.6163330078126	732.8341064453126	-581.8582763671876	-383.6552734375001	554.9896850585939	-611.9001464843751	-341.2618408203126	553.9368286132814	-742.0925903320314	-318.6419982910157	358.7800292968751	-707.0808105468751	-361.8683471679688	275.3467712402344	-652.3020629882814	-323.3305053710938	272.4909362792969	-680.6416015625001	-329.4244995117188	230.4854431152344	-720.9184570312501	-385.951141357422	117.6542510986328	-693.4249877929689	-350.9995117187501	146.7758178710938	-776.2024536132815	-446.6824340820314	104.5707473754883	-761.3792114257814	-238.4125366210938	62.12169265747072	-768.3942871093752	-233.7689361572266	59.60107421875001	-715.4909667968751	-283.1708679199219	28.31150817871094	-666.2128295898439	-43.39812088012696	1477.721801757813	-898.7500610351565	
